<svg id="Calque_1" data-name="Calque 1" xmlns="http://www.w3.org/2000/svg" xmlns:xlink="http://www.w3.org/1999/xlink" viewBox="0 0 276.86 242.57"><defs><style>.cls-1{fill:url(#Dégradé_sans_nom_25);}.cls-2{fill:#fff9e3;}.cls-3{fill:url(#Dégradé_sans_nom_29);}</style><linearGradient id="Dégradé_sans_nom_25" x1="138.1" y1="43.65" x2="138.1" gradientUnits="userSpaceOnUse"><stop offset="0"/><stop offset="0.16" stop-color="#22211e"/><stop offset="0.5" stop-color="#79766c"/><stop offset="1" stop-color="#fff9e3"/></linearGradient><linearGradient id="Dégradé_sans_nom_29" x1="138.37" y1="242.57" x2="138.37" y2="155.87" gradientUnits="userSpaceOnUse"><stop offset="0" stop-color="#fff9e3"/><stop offset="0.12" stop-color="#fbf5df"/><stop offset="0.25" stop-color="#eee9d4"/><stop offset="0.37" stop-color="#dad5c2"/><stop offset="0.5" stop-color="#bdb8a8"/><stop offset="0.63" stop-color="#979487"/><stop offset="0.76" stop-color="#69675e"/><stop offset="0.89" stop-color="#34332e"/><stop offset="1"/></linearGradient></defs><polygon class="cls-1" points="48.03 43.65 53.19 8.1 222.87 8.1 228.17 43.65 237.07 43.65 229.92 0 46.11 0 39.13 43.65 48.03 43.65"/><path class="cls-2" d="M41.75,90.2c1-6.68,1.88-13,2.82-19.45H85.79l7.4-21.82H14.6c.94,3,1.74,5.81,2.7,8.51a9.86,9.86,0,0,1,.31,5.33Q9,107.83.49,152.91c-.09.48-.15,1-.2,1.44,10.24-2.2,21.23-4.16,32.83-5.86,1.76-12.08,3.5-24.06,5.27-36.25H70.31l8.18-22Z" transform="translate(-0.29 -0.21)"/><path class="cls-2" d="M98.31,49c1.5,3.35,3,6.34,4.2,9.44A5.53,5.53,0,0,1,102.7,62q-13.73,41-29.48,82c10.44-.87,21.22-1.54,32.26-2q1.17-4.06,2.33-8.11H139.3c.62,2.5,1.23,5,1.86,7.48,10.76.05,21.33.32,31.65.78Q156.87,95.33,143.52,49Zm15.62,62.57c3.48-13.66,6.85-27.22,10.25-40.76l1.25,0c2.75,13.49,5.62,27,8.68,40.74Z" transform="translate(-0.29 -0.21)"/><path class="cls-2" d="M241.57,148.48c12.65,1.84,24.57,4,35.58,6.44C270.3,119.51,263.48,84.3,256.64,49H229.38c2.73,18.27,5.42,36.3,8.11,54.33l-.67.09C223.68,85.19,211.12,67,199.26,49H167.88c1.64,2.95,3.06,5.6,4.63,8.19A12.35,12.35,0,0,1,174.33,63q2.26,39.68,4.63,79.36,16.41.85,31.87,2.37l-4.48-43.39.63-.09C218.11,117.07,229.68,132.85,241.57,148.48Z" transform="translate(-0.29 -0.21)"/><path class="cls-2" d="M169.21,171.33c-1.64-2.13-3.2-4.18-4.76-6.24l-.12,0,.34,9.25h-4.91l0-.49c-.13-4.41-.27-8.82-.39-13.23a2.06,2.06,0,0,0-.38-1.2c-.25-.35-.45-.71-.69-1.11h5.95l4.69,6.39c1.42-2.19,2.79-4.3,4.14-6.41H178l.9,16.06H174l-.46-9.27-.14,0C172.05,167.14,170.66,169.2,169.21,171.33Z" transform="translate(-0.29 -0.21)"/><path class="cls-2" d="M68.41,166.25l-.76,8.13H62.78c0-.18,0-.33,0-.49q.66-6.62,1.34-13.23a2,2,0,0,0-.25-1.27c-.19-.32-.33-.67-.52-1h5.52q2.2,4,4.48,8.17l.12,0,.71-8.15H79l-1.28,16H73.1q-2.28-4.05-4.53-8.14Z" transform="translate(-0.29 -0.21)"/><path class="cls-2" d="M199.11,158.33h5.52q3,4.06,6,8.14l.13,0-.82-8.11h4.8l1.71,16h-4.59c-2-2.7-4-5.43-6.05-8.15l-.13,0,.76,8.14h-4.91l0-.49c-.38-4.42-.77-8.84-1.14-13.26a2.12,2.12,0,0,0-.44-1.17C199.62,159.11,199.4,158.74,199.11,158.33Z" transform="translate(-0.29 -0.21)"/><path class="cls-2" d="M136.43,158.33l-2.32,3.28H128c-.78,0-1,.16-1,.76,0,2.65-.07,5.31-.11,8,0,.61.2.77,1,.77,1,0,1.94,0,2.91,0l.48,0,.05-6.51h4.83v9.81l-.51,0h-9.48a8.57,8.57,0,0,1-1.44-.11c-1.58-.27-2.55-1.15-2.67-2.4a7.18,7.18,0,0,1,0-.8q.09-4.74.19-9.46a5.33,5.33,0,0,1,.09-1c.29-1.3,1.34-2.09,3-2.29.3,0,.6-.05.89-.05h9.72Z" transform="translate(-0.29 -0.21)"/><path class="cls-2" d="M95.15,161.61H89c-.78,0-1,.16-1.05.76-.18,2.65-.35,5.31-.53,8,0,.6.16.77.94.77h2.9l.48,0,.41-6.52H97l-.54,9.82-.5,0H86.48a8.49,8.49,0,0,1-1.44-.11c-1.67-.3-2.54-1.23-2.54-2.69,0-.14,0-.28,0-.42.24-3.21.47-6.42.72-9.63a4.73,4.73,0,0,1,.21-1.11c.46-1.33,1.76-2.07,3.7-2.13H97.66Z" transform="translate(-0.29 -0.21)"/><path class="cls-2" d="M105.21,158.33h8q2.22,8,4.54,16h-5l-.73-3.29h-5c-.32,1.11-.65,2.2-1,3.3h-5c.08-.22.14-.44.21-.64q2.44-6.74,4.83-13.46a.7.7,0,0,0,0-.53C105.76,159.29,105.5,158.85,105.21,158.33Zm4.71,3.3h-.21l-1.75,6.1h3.27C110.78,165.67,110.39,163.65,109.92,161.63Z" transform="translate(-0.29 -0.21)"/><path class="cls-2" d="M50.22,161.61l-.35,2.93h6.75l-2.71,3.29H49.48l-.39,3.27H57.4l-2.71,3.28h-11l.06-.46q.84-6.67,1.69-13.36a1.75,1.75,0,0,0-.18-1.1c-.19-.35-.33-.71-.52-1.12h14l-2.65,3.27Z" transform="translate(-0.29 -0.21)"/><path class="cls-2" d="M147.68,167.82l0,3.27h8.34l-2.28,3.29H142.85v-.45c0-4.45-.07-8.91-.09-13.36a1.73,1.73,0,0,0-.3-1c-.25-.37-.46-.76-.71-1.18h14l-2.22,3.25h-5.88l0,2.92h6.77l-2.27,3.3Z" transform="translate(-0.29 -0.21)"/><path class="cls-2" d="M191.43,167.84H187l.22,3.26h8.31l-2.1,3.28h-10.9c0-.17-.06-.34-.07-.51q-.41-6.6-.79-13.19a2.16,2.16,0,0,0-.43-1.24c-.25-.34-.45-.69-.71-1.09h14l-2.05,3.27h-5.86l.19,2.89h6.63l.08.09C192.81,165.67,192.13,166.74,191.43,167.84Z" transform="translate(-0.29 -0.21)"/><path class="cls-2" d="M219.39,158.33h13.84l.43,3.27h-4.51l1.61,12.77h-4.93l-1.52-12.76h-4.55Z" transform="translate(-0.29 -0.21)"/><path class="cls-2" d="M156,29.1h-3.59l.08,3.25h6.75l-1.8,3.29h-8.86c0-.17,0-.34,0-.51-.08-4.4-.17-8.8-.24-13.19a2.55,2.55,0,0,0-.3-1.24c-.2-.34-.35-.69-.55-1.09h11.3L157,22.87h-4.75l.07,2.9h5.37l.07.09Z" transform="translate(-0.29 -0.21)"/><path class="cls-2" d="M113.47,19.6h11.2l-.07,3.27H121l-.35,12.77h-4L117,22.88h-3.69Z" transform="translate(-0.29 -0.21)"/><path class="cls-2" d="M142.37,35.64h-4V29h-3.57l0,6.62h-4c0-.16,0-.3,0-.43,0-4.49.09-9,.15-13.48a1.86,1.86,0,0,0-.19-.86c-.21-.4-.39-.81-.6-1.27h4.69l0,6.07h3.54l0-6.06h3.88Z" transform="translate(-0.29 -0.21)"/><polygon class="cls-2" points="91.44 188.53 138.28 209.06 185.04 188.53 91.44 188.53"/><polygon class="cls-3" points="244.91 155.87 248.68 181.15 138.47 232.99 28.05 181.15 31.73 155.87 20.85 158.09 16.45 185.61 138.48 242.57 260.3 185.61 255.8 158.09 244.91 155.87"/></svg>